<svg width="132" height="22" viewBox="0 0 132 22" fill="none" xmlns="http://www.w3.org/2000/svg">
<g opacity="0.66">
<path d="M20.3065 9.39375C20.2339 9.36316 20.1538 9.35505 20.0766 9.37048C19.9994 9.38592 19.9285 9.42418 19.8731 9.48036L16.2491 13.1193C16.1853 13.1828 16.1348 13.2584 16.1004 13.3417C16.066 13.4251 16.0485 13.5144 16.0488 13.6046V14.9044C16.0485 15.0396 15.9948 15.1691 15.8995 15.2646C15.8043 15.3602 15.6752 15.4139 15.5406 15.4141H11.9195C11.7891 15.413 11.6641 15.3618 11.5702 15.2709L6.89911 10.8231C6.8028 10.7321 6.74581 10.6068 6.74035 10.4741C6.73489 10.3414 6.78138 10.2118 6.86988 10.1131L14.5626 1.46303C14.675 1.33663 14.7485 1.18028 14.7744 1.01285C14.8002 0.84542 14.7773 0.674055 14.7084 0.519413C14.6394 0.36477 14.5274 0.233453 14.3858 0.141293C14.2442 0.049132 14.0791 6.1472e-05 13.9104 0H10.3242C10.1674 -1.08238e-06 10.0123 0.0332848 9.8692 0.0976755C9.72609 0.162066 9.59815 0.256114 9.49376 0.373638L0.990564 9.93487C0.7965 10.151 0.694523 10.4349 0.706516 10.7257C0.71851 11.0165 0.843519 11.2909 1.05472 11.4902L9.59926 19.6264C9.80552 19.8239 10.0798 19.9339 10.3648 19.9334H19.439C19.7342 19.9331 20.0172 19.8151 20.2259 19.6055C20.4346 19.396 20.552 19.1118 20.5524 18.8154V9.76308C20.5527 9.68392 20.5295 9.60647 20.4857 9.54066C20.4419 9.47486 20.3795 9.4237 20.3065 9.39375Z" fill="white"/>
<path d="M32.0476 10.8833C31.9709 10.7933 31.9277 10.6793 31.9255 10.5608C31.9232 10.4424 31.9621 10.3269 32.0355 10.2341L33.8888 7.8985C34.0558 7.68658 34.141 7.42129 34.1288 7.15134C34.1167 6.88139 34.0079 6.62492 33.8225 6.42903L28.028 0.345005C27.9238 0.236167 27.7989 0.149524 27.6606 0.0902487C27.5223 0.0309735 27.3736 0.000277331 27.2233 0H17.1725C16.8773 0.000378791 16.5944 0.118291 16.3856 0.32788C16.1769 0.537469 16.0595 0.821626 16.0591 1.11803V10.3901C16.0583 10.4695 16.081 10.5473 16.1244 10.6137C16.1679 10.68 16.23 10.7319 16.3029 10.7626C16.3758 10.7933 16.4562 10.8015 16.5337 10.7862C16.6113 10.7708 16.6826 10.7326 16.7384 10.6764L20.3909 7.00952C20.4457 6.9547 20.4891 6.88955 20.5187 6.81781C20.5483 6.74608 20.5635 6.66917 20.5634 6.59152V5.01468C20.5634 4.87951 20.6169 4.74988 20.712 4.65431C20.8072 4.55874 20.9363 4.50505 21.0709 4.50505H25.5873C25.7227 4.50543 25.8525 4.55974 25.948 4.65608L28.3352 7.07394C28.4243 7.16384 28.4768 7.2839 28.4823 7.41061C28.4879 7.53732 28.4461 7.66154 28.3652 7.75893L26.6017 9.88906C26.4332 10.0919 26.3418 10.3482 26.3439 10.6123C26.346 10.8764 26.4414 11.1312 26.6131 11.3313L27.9753 12.9261C28.0609 13.0258 28.1048 13.1549 28.0976 13.2864C28.0904 13.4178 28.0328 13.5414 27.9368 13.6311L22.8294 18.416C22.7012 18.5362 22.6119 18.6924 22.5731 18.8643C22.5344 19.0362 22.5481 19.2157 22.6124 19.3797C22.6766 19.5437 22.7885 19.6844 22.9335 19.7837C23.0785 19.8829 23.2499 19.9361 23.4254 19.9363H27.3173C27.6014 19.9368 27.8747 19.8277 28.0808 19.6314L33.6322 14.3755C33.8407 14.1784 33.9655 13.9081 33.9807 13.621C33.9958 13.3338 33.9001 13.0518 33.7135 12.8337L32.0476 10.8833Z" fill="white"/>
<path d="M51.2218 14.3661H45.1087L44.0965 17.197H41.02L46.513 2.62109H49.8796L55.3526 17.197H52.234L51.2218 14.3661ZM50.251 11.6834L48.1646 5.83204L46.0582 11.6834H50.251Z" fill="white"/>
<path d="M55.106 11.9083C55.106 8.7589 57.5431 6.37109 60.765 6.37109C62.892 6.37109 64.6684 7.40825 65.6186 9.00513L63.2848 10.4152C62.8094 9.56485 61.8806 8.98365 60.765 8.98365C59.1127 8.98365 57.8738 10.2484 57.8738 11.9076C57.8738 13.5667 59.1127 14.8315 60.765 14.8315C61.8806 14.8315 62.8094 14.251 63.2848 13.3999L65.6186 14.81C64.6684 16.4069 62.892 17.444 60.765 17.444C57.5431 17.4455 55.106 15.0605 55.106 11.9083Z" fill="white"/>
<path d="M77.3691 6.62041V17.1966H74.684V15.9318C74.2523 16.414 73.7234 16.7984 73.1324 17.0594C72.5413 17.3205 71.9017 17.4521 71.256 17.4457C68.3235 17.4457 66.1138 15.0608 66.1138 11.9085C66.1138 8.75627 68.3235 6.37133 71.256 6.37133C71.9017 6.36475 72.5414 6.49636 73.1324 6.75739C73.7235 7.01842 74.2524 7.40288 74.684 7.88518V6.62041H77.3691ZM74.684 11.9085C74.684 10.2494 73.4451 8.9846 71.7721 8.9846C70.1198 8.9846 68.8809 10.2494 68.8809 11.9085C68.8809 13.5677 70.1198 14.8324 71.7721 14.8324C73.4451 14.8324 74.684 13.5677 74.684 11.9085Z" fill="white"/>
<path d="M89.8047 2.62109V17.197H87.1195V15.9322C86.6879 16.4144 86.159 16.7988 85.5679 17.0598C84.9769 17.3209 84.3373 17.4525 83.6916 17.4461C80.7591 17.4461 78.5493 15.0612 78.5493 11.9089C78.5493 8.75666 80.7591 6.37172 83.6916 6.37172C84.3373 6.36515 84.9769 6.49676 85.568 6.75778C86.1591 7.01881 86.688 7.40327 87.1195 7.88557V2.62109H89.8047ZM87.1195 11.9089C87.1195 10.2498 85.8807 8.98499 84.2077 8.98499C82.5554 8.98499 81.3165 10.2498 81.3165 11.9089C81.3165 13.5681 82.5554 14.8328 84.2077 14.8328C85.8807 14.8328 87.1195 13.5681 87.1195 11.9089Z" fill="white"/>
<path d="M102.01 12.8846H93.8525C94.2239 14.2116 95.3395 15.062 96.8678 15.062C98.1508 15.062 99.2015 14.4607 99.759 13.755L101.556 15.3297C100.461 16.6367 98.7674 17.4455 96.7851 17.4455C93.4398 17.4455 90.9399 15.0398 90.9399 11.8668C90.9399 8.73528 93.3564 6.37109 96.537 6.37109C99.6962 6.37109 102.071 8.73313 102.071 11.929C102.072 12.2486 102.051 12.5677 102.01 12.8846ZM93.8318 10.9141H99.2015C98.8708 9.58705 97.8179 8.73671 96.5163 8.73671C95.1948 8.73671 94.1597 9.60781 93.8318 10.9141Z" fill="white"/>
<path d="M119.796 10.3114V17.1964H117.114V11.1202C117.114 9.83183 116.309 8.98436 115.047 8.98436C113.725 8.98436 112.837 9.85546 112.837 11.1617V17.1964H110.153V11.1202C110.153 9.83183 109.327 8.98436 108.067 8.98436C106.766 8.98436 105.858 9.85546 105.858 11.1617V17.1964H103.172V6.62018H105.858V7.71889C106.642 6.82776 107.695 6.37109 108.976 6.37109C110.463 6.37109 111.619 7.01529 112.28 8.09252C113.127 6.97234 114.347 6.37109 115.873 6.37109C118.247 6.37109 119.796 7.92646 119.796 10.3114Z" fill="white"/>
<path d="M131.278 6.62109L126.075 19.0433C125.496 20.4948 124.258 21.386 122.873 21.386C121.924 21.386 120.806 20.9715 120.106 20.3288L121.139 18.2137C121.306 18.3873 121.505 18.5262 121.725 18.6222C121.945 18.7183 122.182 18.7697 122.422 18.7734C122.921 18.7734 123.349 18.5451 123.62 17.9438L124.054 17.0312L119.758 6.62109H122.814L125.561 13.8167L128.287 6.62109H131.278Z" fill="white"/>
</g>
</svg>
