<svg width="86" height="20" viewBox="0 0 86 20" fill="none" xmlns="http://www.w3.org/2000/svg">
<g opacity="0.66">
<path d="M20.2553 9.39407C20.1825 9.36351 20.1024 9.35543 20.025 9.37086C19.9477 9.38629 19.8767 9.42453 19.8212 9.48068L16.1972 13.1196C16.1335 13.1832 16.083 13.2589 16.0486 13.3422C16.0143 13.4254 15.9967 13.5148 15.9969 13.6049V14.9048C15.9967 15.0399 15.9432 15.1694 15.848 15.2649C15.7529 15.3605 15.6239 15.4142 15.4894 15.4144H11.8682C11.7376 15.4138 11.6122 15.3625 11.5183 15.2712L6.85001 10.827C6.7537 10.736 6.69672 10.6107 6.69125 10.478C6.68579 10.3453 6.73229 10.2157 6.82079 10.117L14.5135 1.46693C14.6259 1.34052 14.6994 1.18418 14.7253 1.01676C14.7511 0.849326 14.7282 0.677962 14.6593 0.523319C14.5903 0.368676 14.4783 0.237359 14.3367 0.145199C14.1951 0.0530383 14.03 0.00396772 13.8613 0.00390625H10.2715C10.1147 0.00399544 9.9597 0.0373193 9.8166 0.101704C9.6735 0.166089 9.54555 0.260082 9.44111 0.377535L0.939331 9.93877C0.745094 10.1548 0.643006 10.4388 0.655002 10.7296C0.666998 11.0204 0.792119 11.2949 1.00348 11.4941L9.54731 19.6303C9.75411 19.8274 10.0285 19.9371 10.3136 19.9366H19.3878C19.6829 19.9364 19.9659 19.8187 20.1746 19.6092C20.3834 19.3997 20.5008 19.1156 20.5012 18.8193V9.76341C20.5013 9.68429 20.478 9.60692 20.4342 9.54115C20.3904 9.47538 20.3281 9.42418 20.2553 9.39407Z" fill="white"/>
<path d="M31.9954 10.8833C31.9186 10.7933 31.8755 10.6792 31.8734 10.5607C31.8713 10.4422 31.9104 10.3267 31.984 10.2341L33.8373 7.89851C34.0041 7.68653 34.0893 7.42126 34.0771 7.15136C34.0649 6.88145 33.9562 6.625 33.771 6.42904L27.9765 0.345005C27.8723 0.236233 27.7473 0.149633 27.609 0.0903623C27.4708 0.031092 27.3221 0.000358874 27.1717 0H17.121C16.8258 0.000189614 16.5427 0.118049 16.3339 0.327679C16.1251 0.537309 16.0078 0.821568 16.0076 1.11803V10.3844C16.0068 10.4638 16.0295 10.5416 16.0729 10.6079C16.1163 10.6743 16.1785 10.7261 16.2514 10.7569C16.3243 10.7876 16.4047 10.7958 16.4822 10.7805C16.5598 10.7651 16.6311 10.7269 16.6869 10.6707L20.3394 7.00308C20.394 6.9482 20.4373 6.88302 20.4668 6.81129C20.4963 6.73955 20.5114 6.66267 20.5112 6.58507V5.01396C20.5114 4.87873 20.565 4.74911 20.6603 4.65356C20.7556 4.55801 20.8847 4.50433 21.0194 4.50433H25.5358C25.6712 4.50471 25.8009 4.55903 25.8965 4.65536L28.283 7.07323C28.3724 7.16296 28.4251 7.28308 28.4306 7.40988C28.4362 7.53668 28.3942 7.66096 28.313 7.75821L26.5509 9.88762C26.3821 10.0903 26.2906 10.3467 26.2927 10.6109C26.2947 10.8751 26.3903 11.1299 26.5623 11.3299L27.9245 12.9246C28.01 13.0244 28.0538 13.1536 28.0464 13.2851C28.0391 13.4166 27.9814 13.5401 27.8853 13.6297L22.7779 18.4139C22.6497 18.5342 22.5605 18.6905 22.5219 18.8625C22.4832 19.0344 22.497 19.214 22.5613 19.378C22.6256 19.542 22.7376 19.6828 22.8826 19.7821C23.0276 19.8814 23.199 19.9346 23.3746 19.9349H27.2651C27.5493 19.9351 27.8227 19.826 28.0292 19.6299L33.5807 14.3762C33.7892 14.1791 33.914 13.9089 33.9292 13.6217C33.9443 13.3345 33.8486 13.0526 33.6619 12.8344L31.9954 10.8833Z" fill="white"/>
<path d="M51.175 14.3661H45.0618L44.0496 17.197H40.9724L46.4661 2.62109H49.8327L55.305 17.197H52.185L51.175 14.3661ZM50.2041 11.6834L48.122 5.83203L46.0156 11.6834H50.2041Z" fill="white"/>
<path d="M55.4294 12.9871V6.62109H58.1146V12.6142C58.1146 13.962 59.0028 14.8331 60.345 14.8331C61.6873 14.8331 62.5754 13.962 62.5754 12.6142V6.62109H65.2599V12.9871C65.2599 15.6834 63.2982 17.4464 60.3415 17.4464C57.3712 17.4464 55.4294 15.6834 55.4294 12.9871Z" fill="white"/>
<path d="M70.6736 9.08778V13.4847C70.6736 14.3766 71.1726 14.8325 72.1199 14.8325C72.6567 14.8325 73.1108 14.6665 73.5035 14.4804V16.9856C72.9247 17.2969 72.326 17.4422 71.5411 17.4422C69.1254 17.4422 67.9892 16.0322 67.9892 13.9163V9.0842H66.3162V6.61695H67.9892V3.94141H70.6736V6.61695H73.5035V9.0842L70.6736 9.08778Z" fill="white"/>
<path d="M74.1208 11.9083C74.1208 8.7589 76.558 6.37109 79.7799 6.37109C83.0018 6.37109 85.439 8.75603 85.439 11.9083C85.439 15.0605 83.0018 17.4455 79.7799 17.4455C76.558 17.4455 74.1208 15.0605 74.1208 11.9083ZM82.6747 11.9083C82.6747 10.2491 81.4565 8.98437 79.7835 8.98437C78.1312 8.98437 76.8923 10.2491 76.8923 11.9083C76.8923 13.5674 78.1312 14.8322 79.7835 14.8322C81.4529 14.8322 82.6711 13.5674 82.6711 11.9083H82.6747Z" fill="white"/>
</g>
</svg>
