<svg width="221" height="36" viewBox="0 0 221 36" fill="none" xmlns="http://www.w3.org/2000/svg">
<path d="M33.1332 15.8115C33.0105 15.76 32.8752 15.7464 32.7446 15.7724C32.6141 15.7983 32.4943 15.8628 32.4006 15.9573L26.2747 22.0832C26.1669 22.1901 26.0814 22.3174 26.0233 22.4577C25.9651 22.5979 25.9355 22.7484 25.9361 22.9002V25.0884C25.9355 25.3159 25.8447 25.5339 25.6837 25.6947C25.5227 25.8555 25.3046 25.946 25.077 25.9463H18.9559C18.7363 25.9462 18.5251 25.8621 18.3655 25.7113L10.4695 18.2238C10.3067 18.0706 10.2104 17.8596 10.2012 17.6362C10.1919 17.4128 10.2705 17.1947 10.4201 17.0285L23.4238 2.46681C23.6138 2.25401 23.7381 1.99081 23.7818 1.70896C23.8255 1.42711 23.7867 1.13863 23.6702 0.878297C23.5537 0.617968 23.3643 0.396903 23.125 0.241758C22.8856 0.0866125 22.6065 0.00400973 22.3213 0.00390625H16.2593C15.9942 0.00390443 15.7321 0.0599386 15.4901 0.168335C15.2482 0.276732 15.0319 0.435043 14.8555 0.632886L0.481758 16.7285C0.153713 17.0924 -0.018668 17.5703 0.0016055 18.0598C0.021879 18.5493 0.233195 19.0113 0.590206 19.3468L15.0338 33.0434C15.3825 33.376 15.8461 33.5612 16.3279 33.5603H31.6668C32.1658 33.5597 32.6442 33.3612 32.997 33.0083C33.3498 32.6555 33.5483 32.1772 33.549 31.6782V16.4333C33.5495 16.3 33.5102 16.1696 33.4361 16.0589C33.3621 15.9481 33.2566 15.8619 33.1332 15.8115Z" fill="#2A51A3"/>
<path d="M52.98 18.3211C52.8502 18.1697 52.7772 17.9778 52.7735 17.7784C52.7697 17.579 52.8355 17.3845 52.9595 17.2282L56.0923 13.2965C56.3746 12.9398 56.5186 12.4932 56.4981 12.0387C56.4775 11.5843 56.2936 11.1525 55.9802 10.8228L46.1853 0.580782C46.0092 0.397562 45.7979 0.251704 45.5642 0.151919C45.3305 0.0521342 45.079 0.000466865 44.8249 0H27.8352C27.3363 0.000637666 26.8579 0.199137 26.5051 0.551964C26.1523 0.904792 25.9538 1.38314 25.9531 1.88212V17.4909C25.9529 17.6241 25.9922 17.7542 26.0661 17.865C26.14 17.9758 26.2451 18.0621 26.368 18.1131C26.491 18.1641 26.6264 18.1774 26.7569 18.1514C26.8875 18.1253 27.0074 18.0611 27.1014 17.9669L33.2719 11.7879C33.3645 11.6957 33.4379 11.586 33.488 11.4652C33.538 11.3444 33.5637 11.215 33.5635 11.0843V8.44182C33.5635 8.21428 33.6539 7.99607 33.8148 7.83518C33.9757 7.67428 34.1939 7.5839 34.4215 7.5839H42.056C42.2848 7.58453 42.5041 7.67598 42.6656 7.83814L46.701 11.9084C46.8516 12.0598 46.9403 12.2619 46.9496 12.4752C46.959 12.6885 46.8884 12.8976 46.7516 13.0616L43.7742 16.6475C43.4894 16.9889 43.335 17.4203 43.3385 17.865C43.342 18.3096 43.5032 18.7386 43.7935 19.0754L46.0961 21.76C46.2409 21.9278 46.315 22.1453 46.3029 22.3666C46.2908 22.5879 46.1933 22.7959 46.0311 22.9469L37.3977 31.0019C37.1808 31.2043 37.0298 31.4673 36.9644 31.7566C36.899 32.0459 36.9221 32.3482 37.0307 32.6242C37.1394 32.9003 37.3285 33.1372 37.5736 33.3043C37.8187 33.4714 38.1084 33.5609 38.405 33.5612H44.984C45.4641 33.5621 45.9261 33.3783 46.2745 33.0479L55.6585 24.2C56.011 23.8682 56.222 23.4133 56.2476 22.9299C56.2732 22.4464 56.1114 21.9718 55.7959 21.6046L52.98 18.3211Z" fill="#00A0DF"/>
<path d="M85.4004 24.184H75.0668L73.3558 28.9495H68.1553L77.4406 4.41211H83.1315L92.383 28.9495H87.1114L85.4004 24.184ZM83.7593 19.6679L80.2324 9.81747L76.6718 19.6679H83.7593Z" fill="#2A51A3"/>
<path d="M91.9658 20.048C91.9658 14.7462 96.0855 10.7266 101.532 10.7266C105.127 10.7266 108.13 12.4725 109.736 15.1607L105.791 17.5345C104.988 16.103 103.418 15.1246 101.532 15.1246C98.7388 15.1246 96.6446 17.2537 96.6446 20.0468C96.6446 22.8398 98.7388 24.969 101.532 24.969C103.418 24.969 104.988 23.9918 105.791 22.5591L109.736 24.9328C108.13 27.621 105.127 29.367 101.532 29.367C96.0855 29.3694 91.9658 25.3545 91.9658 20.048Z" fill="#2A51A3"/>
<path d="M129.599 11.1463V28.9505H125.06V26.8214C124.331 27.6331 123.437 28.2802 122.437 28.7196C121.438 29.159 120.357 29.3806 119.266 29.3698C114.309 29.3698 110.573 25.3549 110.573 20.0484C110.573 14.7418 114.309 10.727 119.266 10.727C120.357 10.7159 121.438 10.9374 122.438 11.3769C123.437 11.8163 124.331 12.4635 125.06 13.2754V11.1463H129.599ZM125.06 20.0484C125.06 17.2553 122.966 15.1262 120.138 15.1262C117.345 15.1262 115.251 17.2553 115.251 20.0484C115.251 22.8414 117.345 24.9706 120.138 24.9706C122.966 24.9706 125.06 22.8414 125.06 20.0484Z" fill="#2A51A3"/>
<path d="M150.619 4.41211V28.9495H146.08V26.8204C145.35 27.6321 144.456 28.2792 143.457 28.7186C142.458 29.158 141.377 29.3797 140.285 29.3688C135.328 29.3688 131.593 25.354 131.593 20.0474C131.593 14.7409 135.328 10.726 140.285 10.726C141.377 10.7149 142.458 10.9365 143.457 11.3759C144.456 11.8153 145.35 12.4625 146.08 13.2744V4.41211H150.619ZM146.08 20.0474C146.08 17.2544 143.986 15.1252 141.158 15.1252C138.365 15.1252 136.27 17.2544 136.27 20.0474C136.27 22.8405 138.365 24.9696 141.158 24.9696C143.986 24.9696 146.08 22.8405 146.08 20.0474Z" fill="#2A51A3"/>
<path d="M171.254 21.6876H157.464C158.092 23.9216 159.978 25.353 162.561 25.353C164.73 25.353 166.506 24.3409 167.449 23.1528L170.486 25.8037C168.635 28.0039 165.772 29.3655 162.422 29.3655C156.767 29.3655 152.541 25.3157 152.541 19.9742C152.541 14.7026 156.626 10.7227 162.002 10.7227C167.343 10.7227 171.357 14.699 171.357 20.079C171.358 20.6169 171.323 21.1542 171.254 21.6876ZM157.429 18.3704H166.506C165.947 16.1365 164.167 14.705 161.967 14.705C159.733 14.705 157.984 16.1714 157.429 18.3704Z" fill="#2A51A3"/>
<path d="M201.315 17.3598V28.9501H196.782V18.7213C196.782 16.5525 195.421 15.1258 193.288 15.1258C191.053 15.1258 189.553 16.5922 189.553 18.7912V28.9501H185.015V18.7213C185.015 16.5525 183.618 15.1258 181.489 15.1258C179.29 15.1258 177.754 16.5922 177.754 18.7912V28.9501H173.215V11.1459H177.754V12.9955C179.079 11.4953 180.86 10.7266 183.025 10.7266C185.539 10.7266 187.493 11.811 188.61 13.6184C190.042 11.7327 192.105 10.7266 194.684 10.7266C198.697 10.7266 201.315 13.3449 201.315 17.3598Z" fill="#2A51A3"/>
<path d="M220.727 11.1445L211.931 32.0563C210.954 34.4999 208.859 36 206.519 36C204.915 36 203.025 35.3024 201.842 34.2204L203.588 30.6597C203.869 30.9521 204.206 31.1858 204.578 31.3475C204.95 31.5092 205.351 31.5957 205.757 31.602C206.6 31.602 207.323 31.2176 207.781 30.2055L208.515 28.6692L201.254 11.1445H206.419L211.063 23.2578L215.671 11.1445H220.727Z" fill="#2A51A3"/>
</svg>
