<svg width="172" height="32" viewBox="0 0 172 32" fill="none" xmlns="http://www.w3.org/2000/svg">
<path d="M31.5984 15.0738C31.481 15.0252 31.3518 15.0126 31.2272 15.0376C31.1026 15.0625 30.9882 15.1239 30.8986 15.214L25.0566 21.056C24.9539 21.1581 24.8726 21.2795 24.8171 21.4132C24.7617 21.547 24.7333 21.6903 24.7337 21.8351V23.9219C24.7331 24.1387 24.6467 24.3464 24.4934 24.4997C24.3401 24.653 24.1323 24.7394 23.9155 24.74H18.077C17.8667 24.7388 17.665 24.6565 17.5139 24.5102L9.98506 17.3697C9.82945 17.2241 9.73721 17.0232 9.72818 16.8102C9.71916 16.5973 9.79406 16.3893 9.93679 16.231L22.339 2.34876C22.5211 2.14641 22.64 1.89512 22.6808 1.62594C22.7217 1.35677 22.6827 1.08153 22.5688 0.834256C22.46 0.585309 22.2807 0.373658 22.053 0.225412C21.8253 0.0771665 21.5592 -0.00118823 21.2876 1.36212e-05H15.5053C15.2526 0.000156625 15.0028 0.0535448 14.7722 0.156698C14.5415 0.259852 14.3352 0.410455 14.1666 0.598692L0.459065 15.9483C0.146432 16.2956 -0.0177974 16.7515 0.00153172 17.2184C0.0208608 17.6853 0.222215 18.1261 0.562487 18.4464L14.3367 31.5082C14.6699 31.8248 15.1123 32.0009 15.572 32H30.1988C30.6747 31.9997 31.1311 31.8105 31.4676 31.4739C31.8042 31.1374 31.9934 30.681 31.9937 30.2051V15.6668C31.9938 15.5399 31.9563 15.4159 31.886 15.3103C31.8156 15.2048 31.7155 15.1225 31.5984 15.0738Z" fill="#2A51A3"/>
<path d="M50.5234 17.4662C50.4019 17.3222 50.3337 17.1408 50.3304 16.9524C50.327 16.764 50.3887 16.5803 50.505 16.4321L53.4926 12.6826C53.7617 12.3422 53.8988 11.9162 53.879 11.4828C53.8592 11.0495 53.6836 10.6378 53.3846 10.3235L44.0436 0.556162C43.8758 0.380825 43.6743 0.241188 43.4511 0.14562C43.228 0.0500522 42.9879 0.000522462 42.7452 0L26.5429 0C26.0671 0.000608111 25.6109 0.189907 25.2744 0.526381C24.938 0.862856 24.7487 1.31904 24.748 1.79489V16.6711C24.7482 16.798 24.7859 16.9221 24.8565 17.0276C24.9271 17.1331 25.0274 17.2154 25.1447 17.2639C25.262 17.3125 25.391 17.3252 25.5155 17.3005C25.6401 17.2757 25.7545 17.2147 25.8443 17.125L31.7311 11.237C31.9067 11.0601 32.005 10.8209 32.0046 10.5717V8.04366C32.0046 7.82667 32.0908 7.61857 32.2442 7.46514C32.3977 7.3117 32.6058 7.22551 32.8227 7.22551H40.1045C40.3203 7.22725 40.5268 7.31395 40.6791 7.46682L44.5274 11.3496C44.6712 11.4936 44.7559 11.6862 44.7648 11.8895C44.7738 12.0928 44.7063 12.2921 44.5757 12.4481L41.734 15.8678C41.4625 16.1936 41.3154 16.605 41.3188 17.0289C41.3222 17.4529 41.4758 17.8619 41.7524 18.1833L43.9552 20.7469C44.093 20.9069 44.1635 21.1141 44.1517 21.325C44.1399 21.5359 44.0468 21.734 43.892 21.8776L35.6587 29.5593C35.4518 29.7524 35.3078 30.0033 35.2455 30.2793C35.1831 30.5553 35.2052 30.8437 35.309 31.107C35.4127 31.3702 35.5933 31.5962 35.8272 31.7555C36.0611 31.9147 36.3375 31.9999 36.6205 32H42.8934C43.3514 32.0007 43.7922 31.826 44.1252 31.5116L53.0732 23.0727C53.4096 22.7566 53.6109 22.3229 53.6353 21.862C53.6597 21.4011 53.5053 20.9485 53.2042 20.5987L50.5234 17.4662Z" fill="#00A0DF"/>
<path d="M77.1144 23.5743C72.9202 23.5743 69.7235 20.3764 69.7235 16.1156C69.7235 11.8547 72.9202 8.65678 77.1144 8.65678C79.7102 8.65678 81.9406 9.88861 83.2736 11.8524L87.2345 9.39105C85.1064 6.22759 81.4098 4.23047 77.1144 4.23047C70.2199 4.23047 64.9961 9.35773 64.9961 16.1156C64.9961 22.8734 70.2245 28.0018 77.1144 28.0018C81.4098 28.0018 85.1064 26.0047 87.2345 22.8412L83.2736 20.3764C81.9441 22.3402 79.7102 23.5743 77.1144 23.5743Z" fill="#2A51A3"/>
<path d="M101.949 10.6215V12.6519C101.253 11.8782 100.4 11.2616 99.447 10.8432C98.494 10.4247 97.4628 10.214 96.422 10.225C91.697 10.225 88.1348 14.0527 88.1348 19.1156C88.1348 24.1785 91.697 28.005 96.422 28.005C97.4631 28.0155 98.4944 27.8043 99.4474 27.3852C100.4 26.9662 101.253 26.3489 101.949 25.5746V27.6051H106.278V10.6215H101.949ZM97.2563 23.8073C94.5915 23.8073 92.5944 21.7734 92.5944 19.1121C92.5944 16.4508 94.5915 14.4169 97.2563 14.4169C99.9521 14.4169 101.949 16.4497 101.949 19.1121C101.949 21.7746 99.9521 23.8073 97.2563 23.8073Z" fill="#2A51A3"/>
<path d="M118.403 10.2266C116.14 10.2266 114.241 11.1275 112.876 12.6569V10.623H108.547V31.9962H112.876V25.5727C114.241 27.1022 116.14 28.0031 118.403 28.0031C123.13 28.0031 126.66 24.172 126.66 19.1137C126.66 14.0553 123.129 10.2266 118.403 10.2266ZM117.539 23.8123C114.873 23.8123 112.876 21.7784 112.876 19.1171C112.876 16.4558 114.873 14.4219 117.539 14.4219C120.233 14.4219 122.197 16.4547 122.197 19.1171C122.197 21.7796 120.233 23.8089 117.539 23.8089V23.8123Z" fill="#2A51A3"/>
<path d="M132.77 10.6211H128.445V27.6013H132.77V10.6211Z" fill="#2A51A3"/>
<path d="M130.607 4.23047C129.956 4.23047 129.332 4.48894 128.872 4.94903C128.412 5.40911 128.153 6.03313 128.153 6.68379C128.153 7.33445 128.412 7.95846 128.872 8.41854C129.332 8.87863 129.956 9.1371 130.607 9.1371C132 9.1371 133.09 8.07649 133.09 6.68379C133.09 5.29108 132 4.23047 130.607 4.23047Z" fill="#2A51A3"/>
<path d="M146.091 14.5836V10.6215H141.53V6.32617H137.204V10.6215H134.505V14.5836H137.203V22.34C137.203 25.7355 139.033 28.0015 142.927 28.0015C144.191 28.0015 145.159 27.7717 146.09 27.2684V23.2466C145.458 23.5442 144.727 23.8131 143.86 23.8131C142.33 23.8131 141.529 23.0788 141.529 21.6482V14.5836H146.091Z" fill="#2A51A3"/>
<path d="M160.973 10.6234V12.6538C160.276 11.8803 159.423 11.2639 158.47 10.8454C157.517 10.427 156.486 10.2162 155.445 10.227C150.72 10.227 147.158 14.0546 147.158 19.1175C147.158 24.1804 150.72 28.0069 155.445 28.0069C156.486 28.0172 157.518 27.8059 158.471 27.3868C159.424 26.9678 160.277 26.3507 160.973 25.5766V27.607H165.3V10.6234H160.973ZM156.28 23.8093C153.615 23.8093 151.618 21.7754 151.618 19.1141C151.618 16.4527 153.615 14.4189 156.28 14.4189C158.974 14.4189 160.973 16.4516 160.973 19.1141C160.973 21.7765 158.98 23.8093 156.28 23.8093Z" fill="#2A51A3"/>
<path d="M167.42 4.23047V27.6019H171.749V4.23047H167.42Z" fill="#2A51A3"/>
</svg>
