<svg width="107" height="20" viewBox="0 0 107 20" fill="none" xmlns="http://www.w3.org/2000/svg">
<g opacity="0.66">
<path d="M20.0403 9.39232C19.9675 9.36204 19.8874 9.35417 19.8101 9.36972C19.7328 9.38527 19.6618 9.42353 19.6062 9.47964L15.9823 13.1186C15.9186 13.1822 15.8681 13.2578 15.8337 13.3411C15.7994 13.4244 15.7818 13.5137 15.782 13.6039V14.9037C15.7816 15.0388 15.728 15.1682 15.6329 15.2637C15.5378 15.3592 15.4089 15.413 15.2744 15.4134H11.6526C11.5222 15.4126 11.3971 15.3613 11.3034 15.2702L6.63298 10.8224C6.53645 10.7317 6.47923 10.6066 6.47363 10.4739C6.46803 10.3413 6.5145 10.2117 6.60304 10.1131L14.2965 1.46303C14.4088 1.33662 14.4824 1.18028 14.5082 1.01285C14.5341 0.845421 14.5112 0.674051 14.4422 0.519408C14.3733 0.364766 14.2613 0.233449 14.1197 0.141288C13.9781 0.0491277 13.813 6.1472e-05 13.6442 0H10.0574C9.90061 8.90766e-05 9.74564 0.0333427 9.60256 0.0975969C9.45947 0.161851 9.33148 0.25566 9.22692 0.372913L0.723736 9.93415C0.529801 10.1505 0.427925 10.4345 0.439915 10.7253C0.451905 11.0162 0.576811 11.2907 0.787891 11.4902L9.33241 19.6264C9.53913 19.8236 9.81355 19.9333 10.0987 19.9327H19.1721C19.4674 19.9325 19.7505 19.8147 19.9592 19.605C20.168 19.3954 20.2853 19.1111 20.2855 18.8147V9.76165C20.2856 9.68263 20.2624 9.60537 20.2187 9.53963C20.1751 9.47389 20.113 9.42262 20.0403 9.39232Z" fill="white"/>
<path d="M31.781 10.8833C31.7042 10.7933 31.6611 10.6793 31.6588 10.5608C31.6566 10.4424 31.6955 10.3269 31.7689 10.2341L33.6222 7.89851C33.7891 7.68651 33.8742 7.42116 33.8619 7.15121C33.8496 6.88126 33.7407 6.62484 33.5552 6.42903L27.7607 0.345001C27.6566 0.236217 27.5318 0.149602 27.3936 0.0903273C27.2555 0.0310526 27.1069 0.0003326 26.9566 0H16.9059C16.6107 0.000378791 16.3277 0.118291 16.119 0.32788C15.9103 0.537469 15.7929 0.821626 15.7925 1.11803V10.3844C15.7919 10.4638 15.8148 10.5415 15.8583 10.6078C15.9018 10.6741 15.964 10.7259 16.0369 10.7566C16.1098 10.7873 16.1901 10.7955 16.2677 10.7802C16.3453 10.7649 16.4166 10.7268 16.4725 10.6707L20.1243 7.00308C20.2329 6.89279 20.2937 6.74378 20.2932 6.58865V5.01396C20.2932 4.8788 20.3467 4.74917 20.4419 4.6536C20.5371 4.55802 20.6662 4.50433 20.8008 4.50433H25.3179C25.4517 4.50542 25.5798 4.55942 25.6743 4.65464L28.0615 7.07323C28.1507 7.16292 28.2032 7.28289 28.2088 7.40953C28.2143 7.53616 28.1725 7.66029 28.0914 7.7575L26.3286 9.88762C26.1603 10.0905 26.069 10.3468 26.0711 10.6109C26.0732 10.8749 26.1685 11.1297 26.3401 11.3299L27.703 12.9246C27.7885 13.0243 27.8322 13.1534 27.8249 13.2847C27.8176 13.4161 27.7598 13.5395 27.6637 13.6289L22.5564 18.4139C22.4281 18.5341 22.3388 18.6904 22.3001 18.8623C22.2614 19.0343 22.2751 19.2139 22.3395 19.3779C22.4038 19.5419 22.5158 19.6826 22.6609 19.7818C22.806 19.8811 22.9775 19.9341 23.1531 19.9342H27.0443C27.3284 19.9346 27.6019 19.8258 27.8084 19.6299L33.3592 14.3733C33.5678 14.1765 33.6927 13.9063 33.7078 13.6192C33.723 13.3321 33.6272 13.0502 33.4404 12.8323L31.781 10.8833Z" fill="white"/>
<path d="M48.2747 14.6899C45.6729 14.6899 43.6898 12.6979 43.6898 10.0438C43.6898 7.38975 45.6729 5.39776 48.2747 5.39776C49.8849 5.39776 51.2685 6.16507 52.0954 7.38832L54.5525 5.85514C53.2323 3.88463 50.9392 2.64062 48.2747 2.64062C43.9978 2.64062 40.7573 5.83438 40.7573 10.0438C40.7573 14.2533 44.0006 17.4477 48.2747 17.4477C50.9392 17.4477 53.2323 16.2037 54.5525 14.2332L52.0954 12.6979C51.2706 13.9211 49.8849 14.6899 48.2747 14.6899Z" fill="white"/>
<path d="M63.6803 6.62237V7.88713C63.2486 7.40481 62.7196 7.02035 62.1284 6.75933C61.5372 6.4983 60.8975 6.3667 60.2517 6.37328C57.3206 6.37328 55.1108 8.75751 55.1108 11.9112C55.1108 15.0649 57.3206 17.4484 60.2517 17.4484C60.8975 17.455 61.5372 17.3234 62.1284 17.0623C62.7196 16.8013 63.2486 16.4168 63.6803 15.9345V17.1993H66.3655V6.62237H63.6803ZM60.7692 14.8358C59.1162 14.8358 57.8773 13.5689 57.8773 11.9112C57.8773 10.2535 59.1162 8.98655 60.7692 8.98655C62.4415 8.98655 63.6803 10.2527 63.6803 11.9112C63.6803 13.5696 62.4415 14.8358 60.7692 14.8358Z" fill="white"/>
<path d="M73.8868 6.375C72.4833 6.375 71.305 6.93616 70.4581 7.88885V6.62409H67.7729V19.9374H70.4581V15.9334C71.305 16.8861 72.4833 17.4472 73.8868 17.4472C76.8193 17.4472 79.0091 15.0608 79.0091 11.91C79.0091 8.75922 76.8186 6.375 73.8868 6.375ZM73.3507 14.8375C71.697 14.8375 70.4581 13.5706 70.4581 11.9129C70.4581 10.2552 71.697 8.98827 73.3507 8.98827C75.0223 8.98827 76.2405 10.2545 76.2405 11.9129C76.2405 13.5713 75.0223 14.8354 73.3507 14.8354V14.8375Z" fill="white"/>
<path d="M82.7997 6.62109H80.1167V17.198H82.7997V6.62109Z" fill="white"/>
<path d="M81.4589 2.64062C81.0553 2.64063 80.6681 2.80163 80.3827 3.08821C80.0973 3.3748 79.937 3.76349 79.937 4.16879C79.937 4.57408 80.0973 4.96278 80.3827 5.24937C80.6681 5.53595 81.0553 5.69696 81.4589 5.69696C82.3235 5.69696 82.9993 5.0363 82.9993 4.16879C82.9993 3.30128 82.3235 2.64062 81.4589 2.64062Z" fill="white"/>
<path d="M91.0638 9.08883V6.62085H88.2346V3.94531H85.5509V6.62085H83.8765V9.08883H85.5502V13.9203C85.5502 16.0354 86.6857 17.4468 89.1007 17.4468C89.8848 17.4468 90.4857 17.3037 91.0631 16.9902V14.485C90.671 14.6704 90.2177 14.8379 89.6795 14.8379C88.7307 14.8379 88.2339 14.3805 88.2339 13.4894V9.0924L91.0638 9.08883Z" fill="white"/>
<path d="M100.294 6.62236V7.88712C99.8618 7.40491 99.3327 7.02052 98.7416 6.7595C98.1504 6.49848 97.5107 6.36682 96.8649 6.37327C93.9338 6.37327 91.7241 8.7575 91.7241 11.9112C91.7241 15.0648 93.9338 17.4484 96.8649 17.4484C97.5107 17.4548 98.1504 17.3231 98.7416 17.0621C99.3327 16.8011 99.8618 16.4167 100.294 15.9345V17.1993H102.978V6.62236H100.294ZM97.3824 14.8358C95.7294 14.8358 94.4905 13.5689 94.4905 11.9112C94.4905 10.2535 95.7294 8.98654 97.3824 8.98654C99.054 8.98654 100.294 10.2527 100.294 11.9112C100.294 13.5696 99.0576 14.8358 97.3824 14.8358Z" fill="white"/>
<path d="M104.294 2.64062V17.1986H106.98V2.64062H104.294Z" fill="white"/>
</g>
</svg>
