<svg width="121" height="20" viewBox="0 0 121 20" fill="none" xmlns="http://www.w3.org/2000/svg">
<g opacity="0.66">
<path d="M20.5811 9.39407C20.5083 9.36341 20.4282 9.35528 20.3508 9.37071C20.2735 9.38614 20.2025 9.42444 20.1469 9.48068L16.523 13.1196C16.4593 13.1832 16.4088 13.2589 16.3745 13.3422C16.3401 13.4254 16.3225 13.5148 16.3227 13.6049V14.9048C16.3223 15.0398 16.2687 15.1692 16.1736 15.2647C16.0785 15.3602 15.9497 15.414 15.8152 15.4144H12.1933C12.0629 15.4137 11.9378 15.3624 11.8441 15.2712L7.17155 10.827C7.07508 10.7361 7.01798 10.6108 7.01251 10.478C7.00705 10.3452 7.05366 10.2156 7.14234 10.117L14.835 1.46694C14.9474 1.34053 15.0209 1.18418 15.0468 1.01676C15.0726 0.849326 15.0497 0.677962 14.9808 0.523319C14.9118 0.368676 14.7998 0.237359 14.6582 0.145199C14.5167 0.0530383 14.3516 0.00396772 14.1828 0.00390625H10.5959C10.4391 0.00399544 10.2841 0.0373236 10.141 0.101708C9.99788 0.166093 9.86992 0.260082 9.76548 0.377535L1.26444 9.93877C1.07055 10.155 0.968696 10.4389 0.980687 10.7296C0.992678 11.0203 1.11757 11.2947 1.3286 11.4941L9.87312 19.6303C10.0798 19.8275 10.3543 19.9372 10.6394 19.9366H19.7171C20.0122 19.9364 20.2951 19.8187 20.5037 19.6092C20.7123 19.3997 20.8296 19.1156 20.8298 18.8193V9.76341C20.8301 9.68435 20.8069 9.607 20.7633 9.54122C20.7196 9.47544 20.6574 9.42421 20.5846 9.39407" fill="white"/>
<path d="M32.3203 10.8833C32.2436 10.7933 32.2004 10.6792 32.1984 10.5607C32.1963 10.4422 32.2354 10.3267 32.3089 10.2341L34.1623 7.89851C34.3292 7.68651 34.4143 7.42115 34.4019 7.15121C34.3896 6.88126 34.2808 6.62483 34.0953 6.42903L28.3015 0.345001C28.1972 0.236229 28.0723 0.149628 27.934 0.0903579C27.7958 0.0310876 27.647 0.000358874 27.4967 0H17.446C17.1509 0.000379131 16.8679 0.118314 16.6593 0.327924C16.4507 0.537533 16.3335 0.821692 16.3333 1.11803V10.3844C16.3324 10.4638 16.3552 10.5416 16.3986 10.6079C16.442 10.6743 16.5042 10.7261 16.5771 10.7569C16.65 10.7876 16.7303 10.7958 16.8079 10.7805C16.8855 10.7651 16.9567 10.7269 17.0126 10.6707L20.6644 7.00308C20.7192 6.94833 20.7627 6.88319 20.7923 6.81143C20.8219 6.73968 20.8371 6.66274 20.8369 6.58507V5.01396C20.837 4.87885 20.8906 4.74934 20.9857 4.65381C21.0809 4.55827 21.2098 4.50452 21.3444 4.50433H25.8615C25.9969 4.50486 26.1265 4.55916 26.2222 4.65536L28.6087 7.07322C28.6979 7.16304 28.7505 7.28313 28.7561 7.40988C28.7616 7.53664 28.7197 7.66089 28.6386 7.75821L26.8766 9.88762C26.7079 10.0904 26.6165 10.3466 26.6184 10.6107C26.6204 10.8749 26.7157 11.1297 26.8873 11.3299L28.2502 12.9246C28.3356 13.0245 28.3792 13.1536 28.3719 13.2851C28.3646 13.4165 28.3069 13.54 28.2109 13.6297L23.1036 18.4139C22.975 18.5341 22.8855 18.6904 22.8466 18.8625C22.8078 19.0345 22.8215 19.2143 22.8859 19.3785C22.9502 19.5426 23.0624 19.6835 23.2076 19.7827C23.3529 19.882 23.5245 19.935 23.7002 19.9349H27.5915C27.8757 19.9351 28.1491 19.826 28.3556 19.6299L33.9071 14.3741C34.1157 14.177 34.2404 13.9066 34.2555 13.6194C34.2705 13.3322 34.1745 13.0502 33.9876 12.8323L32.3203 10.8833Z" fill="white"/>
<path d="M50.368 14.5011V17.1967H41.2981V2.63867H44.1494V14.5011H50.368Z" fill="white"/>
<path d="M50.7356 11.9083C50.7356 8.7589 53.1727 6.37109 56.3946 6.37109C59.6165 6.37109 62.053 8.75603 62.053 11.9083C62.053 15.0605 59.6165 17.4455 56.3946 17.4455C53.1727 17.4455 50.7356 15.0605 50.7356 11.9083ZM59.2858 11.9083C59.2858 10.2491 58.0676 8.98437 56.3946 8.98437C54.7423 8.98437 53.5027 10.2491 53.5027 11.9083C53.5027 13.5674 54.7423 14.8322 56.3946 14.8322C58.0662 14.8322 59.2858 13.5674 59.2858 11.9083Z" fill="white"/>
<path d="M70.1901 17.3418H66.7629C66.1021 17.3418 65.6473 16.8243 65.6473 16.3061C65.654 16.121 65.7065 15.9405 65.8002 15.781C65.894 15.6215 66.0259 15.4881 66.1841 15.3928C66.7461 15.5698 67.3315 15.6606 67.9205 15.6619C70.7276 15.6619 72.876 13.6714 72.876 11.018C72.8853 10.0295 72.5657 9.06624 71.9679 8.2809C72.0698 7.80348 72.5046 7.51217 73.0407 7.51217H73.7842V5.02344H72.9167C71.5338 5.02344 70.5223 5.72919 70.2115 6.86941C69.4925 6.53907 68.7112 6.36818 67.9205 6.36836C65.0906 6.36836 62.9828 8.35891 62.9828 11.0144C62.9828 12.34 63.5003 13.4817 64.3878 14.307C63.521 14.8466 62.9622 16.0248 62.9622 17.1063C62.9622 18.7869 64.2645 19.9272 66.2262 19.9272H73.9916C73.4855 18.3002 72.0862 17.3418 70.1901 17.3418ZM67.9198 8.92294C69.1587 8.92294 70.1074 9.81408 70.1074 11.018C70.1074 12.2219 69.1587 13.1123 67.9198 13.1123C66.6581 13.1123 65.73 12.2212 65.73 11.018C65.73 9.81479 66.6581 8.92294 67.9198 8.92294Z" fill="white"/>
<path d="M76.0773 2.63867C75.2148 2.63867 74.5383 3.29861 74.5383 4.16684C74.5383 5.03506 75.2148 5.69501 76.0773 5.69501C76.9398 5.69501 77.6177 5.03506 77.6177 4.16684C77.6177 3.29861 76.9413 2.63867 76.0773 2.63867Z" fill="white"/>
<path d="M77.4209 6.62109H74.7356V17.1973H77.4209V6.62109Z" fill="white"/>
<path d="M78.5754 15.8278L79.8763 14.0441C80.6818 14.7492 81.694 15.2259 82.9536 15.2259C84.0278 15.2259 84.8126 14.8737 84.8126 14.231C84.8126 13.5259 83.9038 13.2768 82.7454 13.007C81.0724 12.6341 78.904 12.1159 78.904 9.71016C78.904 7.47052 80.8657 6.37109 83.1995 6.37109C84.9965 6.37109 86.3359 7.01529 87.2889 7.7604L85.9873 9.56485C85.2232 8.98436 84.3357 8.58998 83.2615 8.58998C82.3526 8.58998 81.6092 8.88058 81.6092 9.50258C81.6092 10.2076 82.4973 10.4331 83.6763 10.6843C85.3493 11.0579 87.5177 11.5762 87.5177 13.9819C87.5177 16.2215 85.5354 17.4455 83.0155 17.4455C81.0539 17.4455 79.5876 16.6989 78.5754 15.8278Z" fill="white"/>
<path d="M92.3536 9.08882V13.4851C92.3536 14.3769 92.8489 14.8329 93.7991 14.8329C94.3359 14.8329 94.79 14.6668 95.1827 14.48V16.9895C94.6046 17.3008 94.0059 17.4461 93.2204 17.4461C90.8046 17.4461 89.6684 16.0353 89.6684 13.9203V9.08882H87.9954V6.62085H89.6684V3.94531H92.3536V6.62085H95.1827V9.08882H92.3536Z" fill="white"/>
<path d="M97.9054 2.63867C97.0429 2.63867 96.3665 3.29861 96.3665 4.16684C96.3665 5.03506 97.0429 5.69501 97.9054 5.69501C98.7679 5.69501 99.4457 5.03506 99.4457 4.16684C99.4457 3.29861 98.7679 2.63867 97.9054 2.63867Z" fill="white"/>
<path d="M99.2489 6.62109H96.5637V17.1973H99.2489V6.62109Z" fill="white"/>
<path d="M100.572 11.9083C100.572 8.7589 103.009 6.37109 106.231 6.37109C108.358 6.37109 110.134 7.40825 111.084 9.00513L108.75 10.4152C108.275 9.56485 107.346 8.98365 106.231 8.98365C104.578 8.98365 103.339 10.2484 103.339 11.9076C103.339 13.5667 104.578 14.8315 106.231 14.8315C107.346 14.8315 108.275 14.251 108.75 13.3999L111.084 14.81C110.134 16.4069 108.358 17.444 106.231 17.444C103.009 17.4455 100.572 15.0605 100.572 11.9083Z" fill="white"/>
<path d="M111.601 15.8278L112.902 14.0441C113.707 14.7492 114.719 15.2259 115.979 15.2259C117.052 15.2259 117.837 14.8737 117.837 14.231C117.837 13.5259 116.929 13.2768 115.77 13.007C114.097 12.6341 111.929 12.1159 111.929 9.71016C111.929 7.47052 113.891 6.37109 116.225 6.37109C118.021 6.37109 119.361 7.01529 120.314 7.7604L119.014 9.56485C118.25 8.98436 117.362 8.58998 116.288 8.58998C115.379 8.58998 114.636 8.88058 114.636 9.50258C114.636 10.2076 115.524 10.4331 116.703 10.6843C118.376 11.0579 120.545 11.5762 120.545 13.9819C120.545 16.2215 118.561 17.4455 116.042 17.4455C114.079 17.4455 112.613 16.6989 111.601 15.8278Z" fill="white"/>
</g>
</svg>
