<svg width="124" height="20" viewBox="0 0 124 20" fill="none" xmlns="http://www.w3.org/2000/svg">
<g opacity="0.66">
<path d="M20.1458 9.39303C20.0731 9.36237 19.9929 9.35424 19.9155 9.36967C19.8382 9.3851 19.7672 9.4234 19.7117 9.47964L16.0877 13.1186C16.024 13.1822 15.9735 13.2578 15.9392 13.3411C15.9048 13.4244 15.8872 13.5137 15.8874 13.6039V14.9037C15.887 15.0388 15.8334 15.1682 15.7383 15.2637C15.6432 15.3592 15.5144 15.413 15.3799 15.4134H11.758C11.6276 15.4126 11.5025 15.3613 11.4088 15.2702L6.7384 10.8224C6.64197 10.7316 6.58489 10.6064 6.57942 10.4738C6.57396 10.3411 6.62055 10.2116 6.70918 10.1131L14.4019 1.46304C14.5142 1.33663 14.5878 1.18028 14.6136 1.01285C14.6395 0.84542 14.6166 0.674055 14.5476 0.519413C14.4787 0.36477 14.3667 0.233453 14.2251 0.141293C14.0835 0.049132 13.9184 6.1472e-05 13.7497 0H10.1628C10.006 8.91861e-05 9.85093 0.0334218 9.70783 0.0978065C9.56473 0.162191 9.43677 0.256185 9.33233 0.373638L0.829153 9.93773C0.635261 10.154 0.533393 10.4378 0.545384 10.7285C0.557375 11.0193 0.682265 11.2937 0.8933 11.4931L9.43782 19.6292C9.64454 19.8265 9.91895 19.9362 10.2041 19.9356H19.2783C19.5734 19.9354 19.8564 19.8176 20.0651 19.6082C20.2739 19.3987 20.3913 19.1146 20.3917 18.8183V9.76237C20.3918 9.68325 20.3685 9.60588 20.3247 9.54011C20.2809 9.47434 20.2186 9.42314 20.1458 9.39303Z" fill="white"/>
<path d="M31.885 10.8833C31.8083 10.7933 31.7651 10.6792 31.7631 10.5607C31.761 10.4422 31.8001 10.3267 31.8736 10.2341L33.727 7.89851C33.8938 7.68651 33.979 7.42116 33.9666 7.15121C33.9543 6.88126 33.8454 6.62484 33.66 6.42904L27.8662 0.345005C27.7619 0.236233 27.637 0.149633 27.4987 0.0903623C27.3605 0.031092 27.2117 0.000358874 27.0614 0H17.0107C16.7156 0.000379131 16.4327 0.118323 16.224 0.327932C16.0154 0.537542 15.8982 0.821692 15.898 1.11803V10.3844C15.8971 10.4638 15.9199 10.5416 15.9633 10.6079C16.0067 10.6743 16.0689 10.7261 16.1418 10.7569C16.2147 10.7876 16.295 10.7958 16.3726 10.7805C16.4502 10.7651 16.5214 10.7269 16.5773 10.6707L20.2291 7.00309C20.2839 6.94834 20.3274 6.88319 20.357 6.81144C20.3866 6.73968 20.4018 6.66274 20.4015 6.58507V5.01396C20.4017 4.87886 20.4553 4.74934 20.5504 4.65381C20.6456 4.55827 20.7745 4.50452 20.9091 4.50433H25.4262C25.5614 4.50525 25.6908 4.55979 25.7862 4.65608L28.1727 7.07395C28.2621 7.16368 28.3147 7.2838 28.3203 7.4106C28.3258 7.5374 28.2838 7.66168 28.2026 7.75893L26.4405 9.88834C26.2718 10.091 26.1802 10.3474 26.1823 10.6116C26.1844 10.8758 26.28 11.1306 26.452 11.3306L27.8141 12.9254C27.8995 13.0252 27.9432 13.1544 27.9359 13.2858C27.9285 13.4172 27.8709 13.5407 27.7749 13.6304L22.6676 18.4146C22.539 18.5348 22.4495 18.6911 22.4106 18.8632C22.3718 19.0352 22.3854 19.215 22.4498 19.3792C22.5142 19.5433 22.6264 19.6842 22.7716 19.7835C22.9169 19.8827 23.0885 19.9357 23.2642 19.9356H27.1555C27.4397 19.9358 27.7131 19.8267 27.9196 19.6307L33.4711 14.3748C33.6797 14.1777 33.8044 13.9074 33.8195 13.6201C33.8345 13.3329 33.7385 13.051 33.5516 12.833L31.885 10.8833Z" fill="white"/>
<path d="M53.7787 2.69141L48.1197 17.0003H45.1872L39.5288 2.69141H42.7087L46.6948 13.2053L50.663 2.69141H53.7787Z" fill="white"/>
<path d="M63.6282 12.6873H55.47C55.8421 14.0144 56.9576 14.8647 58.4852 14.8647C59.7683 14.8647 60.8197 14.2634 61.3771 13.5584L63.1734 15.1331C62.0792 16.4394 60.3856 17.2482 58.4032 17.2482C55.0573 17.2482 52.5581 14.8425 52.5581 11.6695C52.5581 8.53801 54.9746 6.17383 58.1552 6.17383C61.3151 6.17383 63.6902 8.53587 63.6902 11.7318C63.6902 12.0513 63.6695 12.3705 63.6282 12.6873ZM55.45 10.7168H60.8197C60.4889 9.38978 59.4361 8.53945 58.1345 8.53945C56.8129 8.53945 55.7801 9.41054 55.45 10.7168Z" fill="white"/>
<path d="M75.2983 10.2829V17.0018H72.6131V11.154C72.6131 9.72242 71.705 8.79192 70.3007 8.79192C68.8337 8.79192 67.8429 9.74604 67.8429 11.1976V17.0039H65.1577V6.42558H67.8422V7.60732C68.6683 6.67682 69.8245 6.17578 71.1881 6.17578C73.6666 6.1765 75.2983 7.79413 75.2983 10.2829Z" fill="white"/>
<path d="M80.482 8.89352V13.2898C80.482 14.1816 80.9809 14.6376 81.9276 14.6376C82.465 14.6376 82.9191 14.4722 83.3111 14.2854V16.7906C82.733 17.102 82.1343 17.2473 81.3495 17.2473C78.933 17.2473 77.7975 15.8372 77.7975 13.7221V8.88994H76.1245V6.42554H77.7975V3.75H80.482V6.42554H83.3104V8.89352H80.482Z" fill="white"/>
<path d="M84.7144 12.7903V6.41992H87.3995V12.413C87.3995 13.7616 88.2877 14.6319 89.6299 14.6319C90.9721 14.6319 91.8603 13.7616 91.8603 12.413V6.4235H94.5448V12.7938C94.5448 15.4894 92.5831 17.2524 89.6299 17.2524C86.6596 17.2488 84.7144 15.4858 84.7144 12.7903Z" fill="white"/>
<path d="M102.702 6.25781V9.03714H102.247C100.327 9.03714 99.2113 10.1774 99.2113 11.9818V17.0001H96.5269V6.42387H99.2113V7.79242C99.9755 6.81754 101.008 6.25781 102.247 6.25781H102.702Z" fill="white"/>
<path d="M114.042 12.6873H105.884C106.256 14.0144 107.371 14.8647 108.899 14.8647C110.182 14.8647 111.233 14.2634 111.791 13.5584L113.587 15.1331C112.493 16.4394 110.8 17.2482 108.817 17.2482C105.471 17.2482 102.972 14.8425 102.972 11.6695C102.972 8.53801 105.389 6.17383 108.569 6.17383C111.729 6.17383 114.104 8.53587 114.104 11.7318C114.104 12.0513 114.083 12.3705 114.042 12.6873ZM105.863 10.7168H111.233C110.903 9.38978 109.849 8.53945 108.549 8.53945C107.227 8.53945 106.192 9.41054 105.863 10.7168Z" fill="white"/>
<path d="M114.763 15.6325L116.065 13.8488C116.87 14.5539 117.882 15.0313 119.142 15.0313C120.216 15.0313 121 14.6784 121 14.0356C121 13.3306 120.092 13.0815 118.933 12.8124C117.26 12.4388 115.092 11.9205 115.092 9.51484C115.092 7.2752 117.054 6.17578 119.387 6.17578C121.184 6.17578 122.524 6.81998 123.477 7.56509L122.176 9.36954C121.412 8.78905 120.523 8.39538 119.449 8.39538C118.541 8.39538 117.797 8.68169 117.797 9.30727C117.797 10.0123 118.685 10.2378 119.864 10.4897C121.537 10.8626 123.706 11.3809 123.706 13.7866C123.706 16.0269 121.722 17.2501 119.203 17.2501C117.24 17.2501 115.775 16.5036 114.763 15.6325Z" fill="white"/>
</g>
</svg>
